HIERARCHY
ROOT pelvis
{
  OFFSET 0 100 0
  CHANNELS 6 Xposition Yposition Zposition Zrotation Xrotation Yrotation
  JOINT pelvis_right_femur
  {
    OFFSET -10.78128 -3.44521 -0.5502486
    CHANNELS 3 Zrotation Xrotation Yrotation
    JOINT right_femur_tibia
    {
      OFFSET -0.8047443 -44.0398 -0.1307829
      CHANNELS 3 Zrotation Xrotation Yrotation
      JOINT right_tibia_foot
      {
        OFFSET 3.006224 -47.83518 -5
        CHANNELS 3 Zrotation Xrotation Yrotation
        End Site
        {
          OFFSET 0 -5 15
        }
      }
    }
  }
  JOINT pelvis_left_femur
  {
    OFFSET 10.78128 -3.44521 -0.5502486
    CHANNELS 3 Zrotation Xrotation Yrotation
    JOINT left_femur_tibia
    {
      OFFSET 0.8047443 -44.0398 -0.1307829
      CHANNELS 3 Zrotation Xrotation Yrotation
      JOINT left_tibia_foot
      {
        OFFSET -4.370144 -48.10324 -4.275266
        CHANNELS 3 Zrotation Xrotation Yrotation
        End Site
        {
          OFFSET 0 -5 15
        }
      }
    }
  }
  JOINT pelvis_spine1
  {
    OFFSET 0 6.468898 -3.129235
    CHANNELS 3 Zrotation Xrotation Yrotation
    JOINT spine1
    {
      OFFSET 0 23.15396 4.99043
      CHANNELS 3 Zrotation Xrotation Yrotation
      JOINT spine2
      {
        OFFSET 0 20.79997 -5.064912
        CHANNELS 3 Zrotation Xrotation Yrotation
        JOINT neck
        {
          OFFSET 0 14.38658 9.616178
          CHANNELS 3 Zrotation Xrotation Yrotation
          End Site
          {
            OFFSET 0 20 0
          }
        }
      }
      JOINT right_manubrium
      {
        OFFSET -5.722621 16.35077 3.967754
        CHANNELS 3 Zrotation Xrotation Yrotation
        JOINT right_clavicle
        {
          OFFSET -13.16364 1.694482 -4.693211
          CHANNELS 3 Zrotation Xrotation Yrotation
          JOINT right_humerus
          {
            OFFSET -28.5034 -0.3100689 -2.792744
            CHANNELS 3 Zrotation Xrotation Yrotation
            JOINT right_radius
            {
              OFFSET -25.15693 0.02248979 -1.271978
              CHANNELS 3 Zrotation Xrotation Yrotation
              End Site
              {
                OFFSET -15 0 0
              }
            }
          }
        }
      }
      JOINT left_manubrium
      {
        OFFSET 5.722621 16.35077 3.967754
        CHANNELS 3 Zrotation Xrotation Yrotation
        JOINT left_clavicle
        {
          OFFSET 13.16364 1.694482 -4.693211
          CHANNELS 3 Zrotation Xrotation Yrotation
          JOINT left_humerus
          {
            OFFSET 29.39168 -1.063119 -2.237045
            CHANNELS 3 Zrotation Xrotation Yrotation
            JOINT left_radius
            {
              OFFSET 24.59957 -0.9528479 0.9047498
              CHANNELS 3 Zrotation Xrotation Yrotation
              End Site
              {
                OFFSET 15 -0 -0
              }
            }
          }
        }
      }
    }
  }
}
MOTION
Frames: 11
Frame Time: 0.0416666666667
256.6938 98.12885 3155.725 2.350069 -3.306337 6.337281 0.4525913 4.787578 2.239897 -0 22.10071 -0 -0.4611316 -3.240355 -4.377439 -4.520844 -5.698952 -9.711358 -0 16.83175 -0 -5.998019 -14.10098 15.50433 -3.658948 -1.371519 5.804093 0.7344272 7.492364 -4.844998 2.331735 21.39098 5.04849 2.226408 -20.00008 7.106417 0.3657111 -18.60447 9.807246 84.6009 25.00469 -11.99429 -0 0 16.74752 -20.4503 9.505049 12.44445 4.640991 -16.33358 -1.839083 -89.90612 25.55297 20.27121 0 0 -14.04344 -3.073801 8.756037 15.69464
258.7215 99.44801 3162.215 3.344557 -8.392941 7.54869 -0.6983827 14.18719 4.146675 -0 56.24271 -0 -0.04758968 5.062881 -2.929999 -5.518726 -13.4197 -8.803608 -0 21.89019 -0 -2.218488 -8.953359 19.58665 -3.054551 -1.156736 6.926835 -1.87832 11.53183 -2.854176 2.204119 22.42339 5.276784 2.439779 -18.08525 7.066218 1.483553 -20.81578 11.19072 85.2279 21.99063 -7.952589 -0 0 20.32733 -24.91833 9.539999 14.23637 3.47248 -15.49504 -3.971978 -93.1 21.15613 25.72509 0 0 -5.269736 0.7960317 7.651553 13.1432
260.8184 101.7052 3167.807 3.739556 -10.14557 8.904693 -0.8934475 11.99763 4.419058 -0 69.14936 -0 0.3529868 7.28031 -3.256271 -5.925137 -12.5875 -8.380195 -0 22.43446 -0 -1.174463 -8.464357 20.11334 -2.846569 -0.3452954 6.39513 -2.531901 12.64873 -2.718963 1.883605 23.04785 5.737586 2.479251 -16.95187 7.148842 2.52896 -20.44303 11.63317 85.68718 22.18599 -7.712991 -0 0 19.72769 -25.77793 9.764095 14.53855 3.181724 -15.80667 -4.924702 -92.38836 20.46786 24.56245 0 0 -4.683625 2.107738 6.841683 12.44054
262.2949 103.2467 3173.546 2.959032 -6.94052 9.909106 0.01488675 -6.094185 2.261363 -0 49.23335 -0 0.02315803 2.345237 -6.192641 -5.82651 2.189046 -9.358964 -0 16.51594 -0 -3.584629 -15.15896 15.52764 -3.365638 0.3180962 3.679316 -0.06236938 9.823911 -5.65249 1.56748 22.62762 6.059176 2.16089 -17.82694 7.374968 2.583454 -17.10991 10.63536 87.13293 25.56416 -14.1363 -0 0 13.46749 -21.35204 10.46561 12.30752 4.057859 -18.00257 -4.246005 -86.58536 24.32894 15.2244 0 0 -15.36872 -0.3464114 7.742496 13.91617
263.2981 103.4395 3179.51 2.144799 -4.545817 10.87467 0.1828623 -20.72085 0.4500235 -0 30.10942 -0 -1.373672 -1.52175 -8.491818 -5.308928 14.98907 -10.62412 -0 10.40824 -0 -5.702278 -20.76476 11.86032 -3.697142 0.5145758 1.337393 1.925472 7.53837 -8.095003 1.500528 22.40023 6.099757 1.886602 -18.70324 7.590835 1.885463 -14.76923 9.736174 89.3428 26.97187 -19.89294 -0 0 8.73319 -18.03512 10.70121 10.39738 4.947691 -19.99237 -3.872997 -81.9895 26.86213 7.492694 0 0 -23.45923 -2.201799 9.441125 14.6724
264.4274 103.1337 3184.931 2.187262 -6.0428 11.90057 0.07069975 -20.38391 0.6574681 -0 33.52643 -0 -2.665329 -0.2648473 -7.920519 -5.03889 14.73893 -10.68783 -0 9.578977 -0 -4.191428 -20.22686 13.48216 -3.223177 0.4827423 1.152821 1.536109 8.636886 -7.999386 1.650424 23.00543 6.056812 1.99915 -18.21832 7.713457 1.317586 -15.4234 9.908308 89.91809 25.00969 -19.38226 -0 0 9.798176 -19.39906 10.38369 10.63632 5.046415 -20.29126 -4.836242 -83.25137 26.05475 8.449417 0 0 -20.96702 -0.6185195 10.42289 13.10104
265.8567 103.1133 3189.761 2.300292 -7.586911 12.78535 0.327899 -16.16897 1.699837 -0 41.24519 -0 -3.42223 1.521539 -6.212964 -4.9747 9.652875 -10.17163 -0 12.53976 -0 -2.05627 -17.52522 16.04343 -2.48079 0.5021621 2.015747 0.6117407 10.45738 -7.05544 1.76128 23.38381 6.14074 2.330597 -17.86301 7.806341 1.502327 -16.69424 10.50737 89.38665 23.52159 -17.14475 -0 0 12.35415 -21.26066 10.15978 11.24491 5.013478 -19.99784 -5.702279 -86.1514 24.1266 12.02419 0 0 -16.24399 2.185408 10.35617 10.79999
267.2051 103.0878 3194.789 1.469153 -5.257354 13.33217 1.233863 -21.59606 1.575613 -0 30.19811 -0 -3.765303 -0.5269194 -6.062264 -4.83643 12.1072 -10.38516 -0 14.54144 -0 -2.580365 -18.55206 14.63526 -2.300389 0.4695943 2.038246 1.490749 9.785611 -7.690901 1.671627 22.56391 6.36404 2.548983 -19.24676 7.93596 2.10797 -15.92073 10.54525 89.23818 25.40083 -19.17849 -0 0 10.87255 -19.19547 10.59939 10.21682 5.637443 -20.81986 -5.083977 -85.40776 24.09436 10.54029 0 0 -19.51469 2.987049 10.22842 9.81282
268.1085 102.3343 3200.778 0.006483087 -0.1508477 13.71066 2.243663 -35.41862 0.3142616 -0 3.16023 -0 -3.919402 -5.398905 -7.886349 -4.481477 22.90661 -11.46189 -0 13.99101 -0 -5.94639 -23.21411 9.494656 -2.756473 0.1671863 0.917853 3.858432 6.82194 -9.843792 1.482634 20.9379 6.537673 2.526939 -21.72529 8.035257 2.513201 -13.34155 9.878567 90.68492 29.18514 -25.63614 -0 0 5.537588 -14.12408 11.42423 7.802918 6.810804 -22.75957 -3.354246 -80.90149 25.81903 3.766063 0 0 -30.09754 1.338854 10.59412 10.46295
268.4615 100.4126 3207.839 -1.349051 4.84633 14.04954 2.850293 -49.44003 -1.008744 0 -25.10365 0 -4.061092 -10.52664 -10.60321 -3.684466 35.57969 -12.89606 -0 13.11294 -0 -10.82597 -27.76263 3.123072 -3.341391 -0.3949787 -0.5216396 6.19736 3.434839 -12.16298 1.322807 19.3075 6.507629 2.306725 -23.92386 7.987244 2.626957 -10.48608 8.990854 93.57063 32.33337 -33.36814 0 0 -0.4434877 -8.934313 12.19687 5.197237 7.971415 -24.7926 -1.501972 -75.31593 27.38941 -4.460743 0 0 -41.83543 -1.372327 11.02378 12.0263
268.5206 97.71115 3215.467 -1.952908 6.857511 14.24851 3.829282 -54.45401 -0.6936604 0 -37.68141 0 -4.126261 -12.87248 -12.2367 -2.964931 41.33407 -13.36123 -0 16.0027 -0 -13.71479 -28.1585 -0.1777573 -3.32158 -0.9685146 -1.077026 7.105469 2.031569 -13.21194 1.255167 18.49657 6.288237 2.087795 -24.71227 7.758083 2.619574 -9.111376 8.587687 95.58124 33.3307 -37.44165 0 0 -3.418891 -6.58812 12.68609 3.808039 8.350638 -25.7243 -0.6453297 -72.59063 27.56339 -8.307828 0 0 -47.44355 -2.647667 10.87782 12.86306
